<svg viewBox="0 0 24 24" xmlns="http://www.w3.org/2000/svg"><path d="m14.505 17.44a11.599 11.599 0 0 0 3.6-1.49 1.816 1.816 0 0 0 -1.935-3.073 7.866 7.866 0 0 1 -8.34 0 1.814 1.814 0 0 0 -2.5.565c0 .002 0 .004-.002.005a1.812 1.812 0 0 0 .567 2.5l.002.002c1.105.695 2.322 1.2 3.596 1.488l-3.465 3.465a1.796 1.796 0 0 0 -.028 2.537l.03.03c.344.354.81.53 1.274.53.465 0 .93-.176 1.275-.53l3.421-3.404 3.404 3.406a1.815 1.815 0 0 0 2.566-2.565zm-2.505-5.052a6.202 6.202 0 0 0 6.195-6.193c0-3.415-2.78-6.195-6.195-6.195s-6.195 2.78-6.195 6.197a6.2 6.2 0 0 0 6.195 6.192zm0-8.757a2.566 2.566 0 0 1 0 5.13 2.569 2.569 0 0 1 -2.565-2.564 2.57 2.57 0 0 1 2.565-2.567z"/></svg>